<svg xmlns="http://www.w3.org/2000/svg" xmlns:xlink="http://www.w3.org/1999/xlink" width="2000" height="1500" viewBox="0 0 2000 1500">
  <defs>
    <clipPath id="clip-bgimage">
      <rect width="2000" height="1500"/>
    </clipPath>
  </defs>
  <g id="bgimage" clip-path="url(#clip-bgimage)">
    <rect width="2000" height="1500" fill="#fff"/>
    <g id="online-store-shopping-cart" transform="translate(1 -40.491)">
      <g id="Icons_38_" transform="translate(0 42.491)">
        <path id="Path_1" data-name="Path 1" d="M12.817,44.031a1.026,1.026,0,0,0-.843-.441H5.617a.43.43,0,0,0,0,.86h6.357a.166.166,0,0,1,.156.224l-1.191,3.207a.167.167,0,0,1-.156.109H4.1l-1.064-4.54a1.236,1.236,0,0,0-1.209-.958H.645a.645.645,0,0,0,0,1.29H1.791l1.433,6.114A1.235,1.235,0,0,0,4.4,50.85a1.326,1.326,0,1,0,1.556,0H8.428a1.326,1.326,0,1,0,1.559,0h.6a.645.645,0,1,0,0-1.29H4.471L4.3,48.849h6.479a1.03,1.03,0,0,0,.962-.669l1.192-3.207A1.026,1.026,0,0,0,12.817,44.031Z" transform="translate(0 -42.491)" fill="#6e044b"/>
      </g>
    </g>
    <g id="Ellipse_1" data-name="Ellipse 1" transform="translate(44 194)" fill="none" stroke="#895794" stroke-width="5" opacity="0.59">
      <ellipse cx="31" cy="27.5" rx="31" ry="27.5" stroke="none"/>
      <ellipse cx="31" cy="27.5" rx="28.5" ry="25" fill="none"/>
    </g>
    <g id="Ellipse_2" data-name="Ellipse 2" transform="translate(57 124)" fill="none" stroke="#895794" stroke-width="5" opacity="0.44">
      <ellipse cx="24.5" cy="23" rx="24.5" ry="23" stroke="none"/>
      <ellipse cx="24.5" cy="23" rx="22" ry="20.5" fill="none"/>
    </g>
    <g id="Symbols" transform="translate(31 450.596)" opacity="0.81">
      <g id="Scene_Plants" data-name="Scene/Plants" transform="translate(0 -0.596)">
        <path id="Leaf-Top" d="M60.243,5.278c1.621-.7,3.68.318,2.693,2.343-1.057,2.168-4.539,2.013-6.5,1.867.2,0,.937-2,1.17-2.3A6.673,6.673,0,0,1,60.243,5.278ZM39.935,44.734C39.352,45.181,39.887,44.776,39.935,44.734ZM61.54,15.671a1.888,1.888,0,0,1,.068,2.845c-.973.97-2.65.846-3.9.682-.565-.074-3.578-.471-2.835-.925a2.512,2.512,0,0,0-.3.124q-.118.355-.246.707c.017.011.032.023.05.034-.02-.01-.034-.02-.051-.03a27.443,27.443,0,0,1-3.479,6.608,6.6,6.6,0,0,1,1.588-.333c1.59-.116,4.847,1.272,2.97,3.262-1.8,1.908-4.322-.37-6.228-.765A89.455,89.455,0,0,1,42.712,35a.511.511,0,0,1,.3.275,12.711,12.711,0,0,1,2.629-1.09c1.167-.182,3.541-.206,4.359.861,1.006,1.314-.2,2.276-1.478,2.451-1.856.255-4.215-.76-5.952-1.452a.587.587,0,0,1-.545-.212l-.114-.043c-2.307,2.262-4.694,4.441-7.063,6.57h.073a6.157,6.157,0,0,1,1.945-.76,5.232,5.232,0,0,1,4.679.994,2.953,2.953,0,0,1,.178,4.384c-2.778,2.4-6.367-3.581-7.688-3.892-2.407,2.14-4.937,4.125-7.5,6.066a4.413,4.413,0,0,1,.87-.129c2.421-.1,7.921,3.115,4.813,5.839-2.709,2.374-5.436-2.607-7.423-4.4-2.417,1.807-4.846,3.6-7.214,5.472a6.653,6.653,0,0,1,3.747.219c1.347.481,3.5,1.619,2.539,3.4-.979,1.815-3.586.831-4.936.169a37.623,37.623,0,0,0-3.491-2.055,45.191,45.191,0,0,0-9.712,11,39.252,39.252,0,0,0-3.847,8.482C1.274,79.035.11,82.2.178,84.707c-.684-5.042,1.347-10.95,3.428-15.317A37.578,37.578,0,0,1,11.4,58.816c-.629-2.262-6.741-5.794-2.876-7.665,2.052-.989,4,.93,4.333,2.871a8.072,8.072,0,0,1-.866,4.223q1.482-1.41,3.063-2.719C16.5,54.319,17.985,53.152,19.482,52c-2.243-2.318-4.144-8.709-.926-9.571,4.751-1.269,2.049,7.174,1.638,8.762a.256.256,0,0,1-.214-.093c.018.148.041.307.069.468,2.864-2.192,5.766-4.335,8.582-6.585a12.193,12.193,0,0,1-.866-1.264,13.684,13.684,0,0,1-1.677-2.708c-.675-1.542-1.276-3.978.771-4.758,2.227-.851,3.117,1.915,3.046,3.534a21.253,21.253,0,0,1-.631,3.255c-.068.339.043,1.891-.392,1.2a3.221,3.221,0,0,1-.015.548q.759-.609,1.507-1.231a.585.585,0,0,1-.032-.188.566.566,0,0,1,.836-.485q.989-.838,1.956-1.7c1.363-1.226,2.748-2.489,4.124-3.78-.27-.255-.14-.583-.391-.852s-.764-.437-1.062-.69a7.45,7.45,0,0,1-1.776-2.419c-.7-1.453-1.542-4.468.754-5.024,2.367-.574,3.4,2.34,3.455,4.131a45.251,45.251,0,0,1-.675,4.567c2.548-2.4,5.06-4.9,7.353-7.45a8.372,8.372,0,0,1-2.786-1.84c-.866-.928-2.212-2.95-.559-3.9,1.47-.84,3.153.574,3.692,1.892a17.879,17.879,0,0,1,.318,3.091c.95-1.084,1.86-2.177,2.71-3.277q.851-1.1,1.6-2.255a1.06,1.06,0,0,1-.3-.322c-2.35-.522-5.18-4.343-2.327-5.473,1.358-.537,2.73.789,3.326,1.847a13.491,13.491,0,0,1,.413,2.122,43.786,43.786,0,0,0,3.548-8.119.514.514,0,0,1-.379-.5,7.047,7.047,0,0,1-2.735-2.59c-.458-.8-1.263-2.623.227-2.977,1.939-.462,2.985,2.489,3.066,3.919.009.166-.017.646-.046,1.086a.649.649,0,0,1,.2.014c.532-1.747.977-3.522,1.35-5.3-1.025-.386-.918-5.815-.183-6.551,1.642-1.647,2.6.905,2.452,2.22A8.683,8.683,0,0,1,56.629,6.9c-.1.128-.072.123-.086-.063a.371.371,0,0,1-.1.2A23.338,23.338,0,0,1,56.4,9.423,54.742,54.742,0,0,1,55.361,15.6q-.169.74-.374,1.467a12.185,12.185,0,0,1,2.49-1.406C58.65,15.207,60.447,14.75,61.54,15.671ZM0,84.5a3.812,3.812,0,0,0,.451,1.8A9.842,9.842,0,0,1,0,84.5Z" transform="translate(34.28 3.308) rotate(-3)" fill="#c1dee2" fill-rule="evenodd" opacity="0.2"/>
        <g id="Plant-Left" transform="translate(0 23.248)" opacity="0.5">
          <path id="Leaf" d="M142.387,98.564c1.893-2.7,5.407-9.557,8.072-10.521,1.717-.621,1.216,5.806,1.237,7.032a102.759,102.759,0,0,1-.949,14.155c-1.027,8.48-4.385,16.032-8.992,23.249-2.37,3.714-5.15,7.473-9,9.79-1.772,1.067-3.9,1.246-5.655,2.165-2.039,1.07-.929.205-1.847,2.329-1.276,2.949-1.684,6.754-2.274,9.9-2.71,14.446-9.272,90.814-8.135,105.508.1,1.3-1.715,1.614-1.806.024-.482-8.431,3.688-66.815,5.792-85.907s4.233-35.961,6.367-42.567c2.59-8.014,7.267-17.651,11.16-25.125A88.908,88.908,0,0,1,142.387,98.564Z" transform="translate(-62.086 -48.35)" fill="#69a1ac" fill-rule="evenodd"/>
          <path id="Leaf-2" data-name="Leaf" d="M154.243,318.027c4.927-3.617,10.26,3.209,5.8,6.827a4.465,4.465,0,0,1-6.492-.378c-.942,1.148-1.823,2.348-2.67,3.362-2.58,3.09-5.019,6.252-7.35,9.489-4.842,6.724-8.991,13.828-13.33,20.8-4.281,6.883-8.528,13.8-12.409,20.858-3.287,5.979-7.669,13.013-8.795,19.568,1.708-13.9,8.188-27.264,15.9-39.519,7.654-12.155,16.437-25.429,28.288-35.021A4.2,4.2,0,0,1,154.243,318.027Z" transform="translate(-59.888 -174.17)" fill="#c1dee2" fill-rule="evenodd"/>
          <path id="Leaf-3" data-name="Leaf" d="M.862,244.014c2.757.539,7.262,6.776,9.535,9.152a89,89,0,0,1,7.461,8.988,152.017,152.017,0,0,1,13.2,21.532,200.137,200.137,0,0,1,14.688,38.225A157.631,157.631,0,0,1,50.2,346.984c.159,1.588,1.823,13.827-.575,14.157-2.157.3-1.49-9.293-1.595-10.6a169.444,169.444,0,0,0-9.6-42.911c-1.068-3.022-2.06-6.723-3.767-9.443-1.23-1.959-.009-1.276-2.17-2.017-1.855-.637-3.969-.481-5.869-1.261-4.128-1.692-7.432-4.978-10.329-8.284-5.63-6.424-10.091-13.373-12.417-21.6A104,104,0,0,1,.747,251.165C.577,249.949-.914,243.667.862,244.014Z" transform="translate(0 -134.061)" fill="#69a1ac" fill-rule="evenodd"/>
          <path id="Leaf-4" data-name="Leaf" d="M18.336,6.18A249.854,249.854,0,0,1,42.766,64.015c3.339,12.141,5.674,24.6,7.994,36.969,3.592,19.152,6.99,38.3,7.956,57.794.972,19.6,2.895,42.217-3.524,61.1,3.207-19.171.154-39.577-.387-58.867-.258-9.209-1.007-18.327-1.989-27.482-.953-8.881-2.509-17.719-3.959-26.53q-1.059-6.437-2.2-12.858c-.225-1.278-.321-5.069-1.131-5.942s-4.977-1.237-6.284-1.882a33.723,33.723,0,0,1-7.3-5.091A58.284,58.284,0,0,1,21.208,67.8C14.537,56.665,11.87,43.079,12,30.186c.026-2.5,4.052-29.46,2.435-29.831q.146-.171.276-.354Q16.552,3.074,18.336,6.18Z" transform="translate(-6.593)" fill="#89c5cc" fill-rule="evenodd"/>
          <path id="Leaf-5" data-name="Leaf" d="M184.275,155.751c.16-.231,1.2-1.838.678-1.736,1.069-.21-1.471,1.773,1.194.556-1.265,1.195-.535,2.747-.518,4.355a39.012,39.012,0,0,1-.9,7.755,53.182,53.182,0,0,1-3.615,11.721,52.521,52.521,0,0,1-17.261,21.183c-3.644,2.526-7.215,3.387-11.371,4.55-2.625.735-2.834,2.093-4.227,4.64-2.9,5.306-5.75,10.592-8.309,16.077-3.055,6.55-6.021,13.107-8.818,19.771C121.7,267.074,114.03,290.332,110,314.4c-.1-14.184,3.183-28.794,7.322-42.314a252.57,252.57,0,0,1,11.127-28.746c1.014-2.277,2.552-5.206,2.983-7.72.3-1.762-.621-3.455-1.043-5.311a55.583,55.583,0,0,1-.083-22.586c1.594-8.011,6.2-11.729,14-12.863,2.852-.415,6.477-.263,9.091-1.479,2.849-1.324,4.024-5.676,5.644-8.47A115.183,115.183,0,0,1,174.5,163.888a50.146,50.146,0,0,1,5.287-4.864C180.971,158.079,183.469,156.915,184.275,155.751Z" transform="translate(-60.437 -84.612)" fill="#89c5cc" fill-rule="evenodd"/>
          <path id="Base" d="M78.044,476h27.673a2.253,2.253,0,0,1,2.253,2.253,2.225,2.225,0,0,1-.024.328l-2.139,14.5a9.011,9.011,0,0,1-8.915,7.7H86.869a9.012,9.012,0,0,1-8.915-7.7l-2.139-14.5a2.253,2.253,0,0,1,1.9-2.557A2.291,2.291,0,0,1,78.044,476Z" transform="translate(-41.642 -261.529)" fill="#c1dee2" fill-rule="evenodd"/>
        </g>
      </g>
    </g>
    <g id="undraw_web_shopping_dd4l" transform="translate(973 450.354)">
      <rect id="Rectangle_1" data-name="Rectangle 1" width="404.945" height="259.344" transform="translate(0.173 0.23)" fill="#e6e6e6"/>
      <rect id="Rectangle_2" data-name="Rectangle 2" width="381.786" height="211.473" transform="translate(11.752 32.758)" fill="#fff"/>
      <rect id="Rectangle_3" data-name="Rectangle 3" width="404.945" height="17.204" fill="#7b0b7f"/>
      <circle id="Ellipse_3" data-name="Ellipse 3" cx="3.189" cy="3.189" r="3.189" transform="translate(9.596 5.607)" fill="#fff"/>
      <circle id="Ellipse_4" data-name="Ellipse 4" cx="3.189" cy="3.189" r="3.189" transform="translate(21.699 5.607)" fill="#fff"/>
      <circle id="Ellipse_5" data-name="Ellipse 5" cx="3.189" cy="3.189" r="3.189" transform="translate(33.802 5.607)" fill="#fff"/>
      <rect id="Rectangle_4" data-name="Rectangle 4" width="74.672" height="81.012" transform="translate(58.727 50.151)" fill="#e6e6e6"/>
      <rect id="Rectangle_5" data-name="Rectangle 5" width="74.672" height="81.012" transform="translate(165.309 50.151)" fill="#e6e6e6"/>
      <rect id="Rectangle_6" data-name="Rectangle 6" width="74.672" height="81.012" transform="translate(271.89 50.151)" fill="#e6e6e6"/>
      <rect id="Rectangle_7" data-name="Rectangle 7" width="74.672" height="81.012" transform="translate(58.727 145.827)" fill="#e6e6e6"/>
      <rect id="Rectangle_8" data-name="Rectangle 8" width="74.672" height="81.012" transform="translate(165.309 145.827)" fill="#e6e6e6"/>
      <rect id="Rectangle_9" data-name="Rectangle 9" width="74.672" height="81.012" transform="translate(271.89 145.827)" fill="#e6e6e6"/>
      <path id="Path_2" data-name="Path 2" d="M448.913,392.394,462.556,387l1.586,26.969s2.856,8.249,1.9,11.422c0,0,.635,5.394-.952,5.711s-6.028.952-6.346.635-.317-1.269-.317-1.269-3.173,2.221-3.49,4.759c0,0-13.326,4.125-13.643.317s6.663-6.98,6.663-6.98l5.394-8.249Z" transform="translate(-265.556 -225.746)" fill="#fff"/>
      <path id="Path_3" data-name="Path 3" d="M494.882,392.394,508.525,387l1.586,26.969s2.856,8.249,1.9,11.422c0,0,.635,5.394-.952,5.711s-6.028.952-6.346.635-.317-1.269-.317-1.269-3.173,2.221-3.49,4.759c0,0-13.326,4.125-13.643.317s6.663-6.98,6.663-6.98l5.394-8.249Z" transform="translate(-282.652 -225.746)" fill="#fff"/>
      <path id="Path_4" data-name="Path 4" d="M485.458,229.131s-2.905,8.117.461,11.778l-2.806,9.643s9.97,29.911,7.122,34.089c0,0-10.635,5.317-31.9-1.9l8.641-33.519-1.234-14.148,1.709-6.647,3.8-.38s-2.279,8.546,1.9,9.875,8.254-9.662,8.254-9.662Z" transform="translate(-271.894 -166.63)" fill="#3f3d56"/>
      <path id="Path_5" data-name="Path 5" d="M287.921,281.234l3.666,1.5,17.5-23,5.5,27,3.666-.667c2.352-23.274,4.269-47.012,1.916-58.24l-13.581-.583-6.166,19.663-3,13.331Z" transform="translate(-208.517 -166.331)" fill="#fff"/>
      <path id="Path_6" data-name="Path 6" d="M639.355,227.875s-5,6.956-4.759,9.762,3.417,48.568,3.417,48.568l7.444.366-2.2-32.948,1.831-8.908,4.515,41.49,9.152.244-8.176-53.815L649,227.875Z" transform="translate(-337.446 -166.566)" fill="#fff"/>
      <path id="Path_7" data-name="Path 7" d="M659.5,402.582c-1.328-1.594-3.612-2.456-5.805-2.922.066-.2-6.669-1.59-6.782-1.3l-2.538-2.022-7.8,4.049L632.19,397.4l-2.036.722c.083-.359-6.319.75-6.319.75-1.223.044-2.785.12-4.534.255-6.123.471-6.594,16.329-6.594,16.329a25.03,25.03,0,0,1,8.864-1.856l1.655,18.97a87.75,87.75,0,0,1,26.691,2.2l4.339-14.911,10.106-3.93S662.636,406.35,659.5,402.582Z" transform="translate(-329.309 -229.218)" fill="#3f3d56"/>
      <path id="Path_8" data-name="Path 8" d="M319.113,388.853a8.514,8.514,0,0,0-4.783-2.407c.054-.164-5.5-1.31-5.588-1.074l-2.091-1.666-6.425,3.337-3.611-2.458-1.677.6c.068-.3-5.207.618-5.207.618-1.008.036-2.295.1-3.735.21-5.045.388-5.433,13.454-5.433,13.454a20.623,20.623,0,0,1,7.3-1.529l1.364,38.259A72.3,72.3,0,0,1,311.222,438l3.575-34.915,8.327-3.238S321.7,391.958,319.113,388.853Z" transform="translate(-205.78 -224.521)" fill="#fff"/>
      <path id="Path_9" data-name="Path 9" d="M556.124,577.268l-50.512,10.339-1.151-.117-44.39-4.48V526.756l54.34-9.187,39.418,4.6.014.249v.117Z" transform="translate(-171.105 -192.49)" fill="#e6e6e6"/>
      <path id="Path_10" data-name="Path 10" d="M582.409,580.138,531.9,590.477l-1.151-.117V532.691l49.383-7.406Z" transform="translate(-197.39 -195.359)" opacity="0.1"/>
      <path id="Path_11" data-name="Path 11" d="M553.843,522.533l-.014.014-49.368,7.274-44.39-3.065,54.34-9.187,39.418,4.6.014.249Z" transform="translate(-171.105 -192.49)" opacity="0.05"/>
      <rect id="Rectangle_10" data-name="Rectangle 10" width="30.776" height="14.446" transform="matrix(0.998, 0.065, -0.065, 0.998, 295.076, 353.901)" fill="#fff"/>
      <rect id="Rectangle_11" data-name="Rectangle 11" width="16.33" height="5.025" transform="matrix(0.998, 0.065, -0.065, 0.998, 301.977, 359.072)" fill="#7b0b7f"/>
      <path id="Path_12" data-name="Path 12" d="M665.124,577.268l-50.512,10.339-1.151-.117-44.39-4.48V526.756l54.34-9.187,39.418,4.6.014.249v.117Z" transform="translate(-211.644 -192.49)" fill="#7b0b7f"/>
      <path id="Path_13" data-name="Path 13" d="M691.408,580.138,640.9,590.477l-1.151-.117V532.691l49.383-7.406Z" transform="translate(-237.928 -195.359)" opacity="0.1"/>
      <path id="Path_14" data-name="Path 14" d="M662.843,522.533l-.014.014-49.368,7.274-44.39-3.065,54.34-9.187,39.418,4.6.014.249Z" transform="translate(-211.644 -192.49)" opacity="0.05"/>
      <rect id="Rectangle_12" data-name="Rectangle 12" width="30.776" height="14.446" transform="matrix(0.998, 0.065, -0.065, 0.998, 363.538, 353.901)" fill="#fff"/>
      <rect id="Rectangle_13" data-name="Rectangle 13" width="16.33" height="5.025" transform="matrix(0.998, 0.065, -0.065, 0.998, 370.439, 359.073)" fill="#7b0b7f"/>
      <path id="Path_15" data-name="Path 15" d="M935.086,295.884s8.912,23.023-7.427,23.023,25.252,23.023,41.591,9.655,6.684-14.111,6.684-14.111-21.538,2.228-20.8-17.082Z" transform="translate(-445.054 -191.859)" fill="#ffb8b8"/>
      <circle id="Ellipse_6" data-name="Ellipse 6" cx="26.266" cy="26.266" r="26.266" transform="translate(475.375 58.422)" fill="#2f2e41"/>
      <path id="Path_16" data-name="Path 16" d="M911.93,448.422l-28.223,72.784S869.6,543.486,874.8,565.767,894.281,628.6,894.281,628.6s10.792,2.746,10.049-6.909.463-56.464-10.677-69.09l45.014-51.447,1.485,58.673s-2.971,26.737-2.228,38.62,2.228,31.936,2.228,31.936l8.912-1.485s12.023-54.7,10.537-72.527c0,0,27.594-86.608-.628-107.4Z" transform="translate(-426.355 -248.59)" fill="#2f2e41"/>
      <path id="Path_17" data-name="Path 17" d="M906.849,730.444s-3.634-.925-4.052,2.408-8.062,18.154-.082,18.9,10.74-6.724,12.077-11.972,1.843-5.55,2.959-6.555,3.772-6.515.439-6.934-5.041-3.7-5.041-3.7S912.1,731.781,906.849,730.444Z" transform="translate(-435.82 -350.556)" fill="#2f2e41"/>
      <path id="Path_18" data-name="Path 18" d="M984.891,730.729s-6.739-.963-6.258,1.444-.963,12.516,0,13.478,2.888,2.888,2.888,4.332.481,6.258,8.665,4.814,6.258-8.665,5.776-9.627-6.258-5.776-5.776-8.665S987.779,728.8,984.891,730.729Z" transform="translate(-465.275 -353.419)" fill="#2f2e41"/>
      <circle id="Ellipse_7" data-name="Ellipse 7" cx="18.193" cy="18.193" r="18.193" transform="translate(483.772 77.45)" fill="#ffb8b8"/>
      <path id="Path_19" data-name="Path 19" d="M958.3,322.1s6.346,12.555-12.781,12.911c-5.88.109-12.873-4.176-15.76-9.3-1.7-3.019-2.13,1.15-4.88.845-5.208-.579-10.771,1.582-15.75,4.229a3.141,3.141,0,0,0-1.534,3.684c3.775,12.527,14.557,72.784,16.222,76.064,4.25,8.378,50.247-5.653,50.247-5.653.63-22.8-7.644-54.688,6.909-77.883a27.72,27.72,0,0,0-22.673-4.9Z" transform="translate(-438.93 -201.362)" fill="#575a89"/>
      <path id="Path_20" data-name="Path 20" d="M805.235,125.868l-13.33-6.982L773.5,121.742l-3.808,16.821,9.48-.365,2.648-6.18V138.1l4.375-.168,2.539-9.838,1.587,10.473,15.55-.318Z" transform="translate(-286.256 -44.215)" fill="#2f2e41"/>
      <circle id="Ellipse_8" data-name="Ellipse 8" cx="10.599" cy="10.599" r="10.599" transform="translate(492.425 44.137)" fill="#2f2e41"/>
      <path id="Path_21" data-name="Path 21" d="M939.2,206a10.6,10.6,0,0,1,8.985-10.477,10.6,10.6,0,1,0,0,20.953A10.6,10.6,0,0,1,939.2,206Z" transform="translate(-449.539 -154.487)" fill="#2f2e41"/>
      <path id="Path_22" data-name="Path 22" d="M820.124,448.268l-50.512,10.339-1.151-.117-44.39-4.48V397.756l54.34-9.187,39.418,4.6.014.249v.117Z" transform="translate(-269.29 -144.513)" fill="#e6e6e6"/>
      <path id="Path_23" data-name="Path 23" d="M846.409,451.138,795.9,461.477l-1.151-.117V403.691l49.383-7.406Z" transform="translate(-295.574 -147.383)" opacity="0.1"/>
      <path id="Path_24" data-name="Path 24" d="M817.843,393.533l-.014.014-49.368,7.274-44.39-3.065,54.34-9.187,39.418,4.6.014.249Z" transform="translate(-269.29 -144.513)" opacity="0.05"/>
      <rect id="Rectangle_14" data-name="Rectangle 14" width="30.776" height="14.446" transform="matrix(0.998, 0.065, -0.065, 0.998, 460.893, 272.878)" fill="#fff"/>
      <rect id="Rectangle_15" data-name="Rectangle 15" width="16.33" height="5.025" transform="matrix(0.998, 0.065, -0.065, 0.998, 467.794, 278.049)" fill="#7b0b7f"/>
      <path id="Path_25" data-name="Path 25" d="M905.834,510.457s-18.567,14.854-10.4,20.053,17.825-20.053,17.825-20.053Z" transform="translate(-433.687 -271.661)" fill="#ffb8b8"/>
      <path id="Path_26" data-name="Path 26" d="M907.7,335.214c-.962-1.084-13.107,5.11-11.306,13.19l.847,55.984s-4.456,46.047,6.684,46.047,9.826,1.548,11.311-2.165,1.884-35.173,1.884-35.173Z" transform="translate(-434.747 -206.441)" fill="#575a89"/>
      <path id="Path_27" data-name="Path 27" d="M1005.95,502.457s9.655,25.252,17.825,20.053-10.4-20.053-10.4-20.053Z" transform="translate(-475.56 -268.686)" fill="#ffb8b8"/>
      <path id="Path_28" data-name="Path 28" d="M1005.781,405.725s-4.626,30.831-3.14,34.545.171,2.165,11.311,2.165,6.684-46.047,6.684-46.047l.847-55.984c1.8-8.08-10.344-14.274-11.306-13.19L999.5,363.643Z" transform="translate(-473.161 -203.465)" fill="#575a89"/>
    </g>
  </g>
</svg>
