<svg xmlns="http://www.w3.org/2000/svg" xmlns:xlink="http://www.w3.org/1999/xlink" width="15" height="15" viewBox="0 0 15 15">
  <defs>
    <clipPath id="clip-heart">
      <rect width="15" height="15"/>
    </clipPath>
  </defs>
  <g id="heart" clip-path="url(#clip-heart)">
    <path id="heart-2" data-name="heart" d="M7.306,13a.857.857,0,0,1-.565-.212c-.59-.516-1.159-1-1.662-1.429l0,0A30.9,30.9,0,0,1,1.449,7.951,5.439,5.439,0,0,1,0,4.391,4.567,4.567,0,0,1,1.159,1.272,3.929,3.929,0,0,1,4.082,0a3.675,3.675,0,0,1,2.3.793,4.7,4.7,0,0,1,.928.969A4.7,4.7,0,0,1,8.234.793,3.675,3.675,0,0,1,10.53,0a3.929,3.929,0,0,1,2.923,1.272,4.567,4.567,0,0,1,1.159,3.119,5.438,5.438,0,0,1-1.449,3.56,30.9,30.9,0,0,1-3.627,3.4c-.5.429-1.073.914-1.665,1.432A.857.857,0,0,1,7.306,13ZM4.082.856a3.083,3.083,0,0,0-2.294,1A3.715,3.715,0,0,0,.856,4.391,4.576,4.576,0,0,0,2.108,7.405a30.408,30.408,0,0,0,3.524,3.3l0,0c.5.43,1.075.916,1.67,1.436.6-.521,1.17-1.009,1.675-1.439a30.416,30.416,0,0,0,3.524-3.3,4.576,4.576,0,0,0,1.252-3.014,3.715,3.715,0,0,0-.933-2.539,3.082,3.082,0,0,0-2.293-1,2.839,2.839,0,0,0-1.772.614A4.153,4.153,0,0,0,7.77,2.613a.54.54,0,0,1-.928,0A4.15,4.15,0,0,0,5.854,1.47,2.839,2.839,0,0,0,4.082.856Zm0,0" transform="translate(0 2)" fill="#7b0a65"/>
  </g>
</svg>
